<?xml version="1.0" encoding="utf-8"?>
<!-- Generator: Adobe Illustrator 19.0.0, SVG Export Plug-In . SVG Version: 6.00 Build 0)  -->
<svg version="1.1" id="Layer_1" xmlns="http://www.w3.org/2000/svg" xmlns:xlink="http://www.w3.org/1999/xlink" x="0px" y="0px"
	 viewBox="0 0 100 100" style="enable-background:new 0 0 100 100;" xml:space="preserve">
<style type="text/css">
	.st0{fill:#55ACEE;}
	.st1{fill:#FFFFFF;}
</style>
<circle id="XMLID_1_" class="st0" cx="50" cy="50" r="50"/>
<path id="XMLID_2_" class="st1" d="M79.5,31.7c-2.2,1-4.5,1.6-7,1.9c2.5-1.5,4.4-3.9,5.3-6.7c-2.3,1.4-4.9,2.4-7.7,2.9
	C68,27.5,64.8,26,61.4,26c-6.7,0-12.1,5.4-12.1,12.1c0,0.9,0.1,1.9,0.3,2.8c-10.1-0.5-19-5.3-25-12.7c-1,1.8-1.6,3.9-1.6,6.1
	c0,4.2,2.1,7.9,5.4,10.1c-2-0.1-3.9-0.6-5.5-1.5c0,0.1,0,0.1,0,0.2c0,5.9,4.2,10.8,9.7,11.9c-1,0.3-2.1,0.4-3.2,0.4
	c-0.8,0-1.5-0.1-2.3-0.2c1.5,4.8,6,8.3,11.3,8.4c-4.1,3.2-9.4,5.2-15,5.2c-1,0-1.9-0.1-2.9-0.2C25.8,72,32.2,74,39,74
	c22.3,0,34.5-18.5,34.5-34.5c0-0.5,0-1,0-1.6C75.9,36.2,77.9,34.1,79.5,31.7z"/>
</svg>
