<?xml version="1.0" encoding="utf-8"?>
<!-- Generator: Adobe Illustrator 19.2.1, SVG Export Plug-In . SVG Version: 6.00 Build 0)  -->
<svg version="1.1" id="Layer_1" xmlns="http://www.w3.org/2000/svg" xmlns:xlink="http://www.w3.org/1999/xlink" x="0px" y="0px"
	 viewBox="0 0 564.9 345.9" style="enable-background:new 0 0 564.9 345.9;" xml:space="preserve">
<style type="text/css">
	.st0{fill:#6857B2;}
</style>
<title>fazz</title>
<g id="_Group_">
	<path id="_Path_" class="st0" d="M379.7,52.9c-6.1,14.6-24,21.7-54.7,21.7c-23.1,0-42.8-11.4-63.6-23.5
		C236.3,36.5,212.8,20,171.5,20c-53.1,0-82.4,25.5-101.9,46.9c-17.8,19.6-36.9,52.2-34.4,77.6c1.5,15.9,6.1,26.5,18.2,32.3
		c10.5,5.1,15.9,5.9,26.6,6.1l17.2-0.4L151.1,99H189l-52,83.1l83.7-1.3l-12.6,20l-78.7,1.5L41.7,345.8L0,345.9l88.6-143.3l-8.5,0.2
		H80c-12.3-0.1-34.2-1.2-48.3-8.1C13.4,185.8,2.5,169,0.4,146.2c-2.6-27.4,12.9-64.7,38.6-93C70.2,19,119.4,0,166.5,0
		c46.6,0,79,18.8,104.9,33.8C290.7,45,307.2,54.6,325,54.6c38.2,0,28.5-51.6,28.5-51.6C356.3,5.8,388.7,31.2,379.7,52.9z"/>
	<path id="_Path_2" class="st0" d="M477.8,229.3"/>
	<path id="_Path_3" class="st0" d="M429,324h-87.1c-4.1,0-4.3-4.8-3.3-8l1.3-10.4l86.6-81.8h-80.2l6.5-15.3h90.5
		c4.1,0,6.9,4.2,5.9,8.2l-3.9,18.6l-77.1,71.2h66.4L429,324z"/>
	<path id="_Path_4" class="st0" d="M544.7,324h-87.3c-4.1,0-4.1-4.6-3.6-7.9l1.6-12.4l86.6-79.8h-80.2l6.5-15.3h90.4
		c4.1,0,6.9,4.2,5.9,8.2l-3.9,18.6l-77.1,71.1h66.5L544.7,324z"/>
	<path id="_Compound_Path_" class="st0" d="M300.9,301.9c-1-4.9-1.3-9.8-1-14.8l24.4-73.9c0.6-2.7,0.7-6.3-2-6.4
		c0,0-11.1-1.7-31.1-2s-44.2-1.8-59.9,13c-14,13.2-30.8,35.2-29.7,68.6c0.4,11,2.5,26.7,17,36.5c5,3.4,11,4.6,17,4.6
		c14.7,0,22.6-2.9,28.7-5.3c7.6-3,11.5-7.2,18.2-12.1c1,3.1,2.7,6,4.9,8.5c3.1,3.3,7.4,5.2,11.9,5.2h2.2l22.1-10.3l-8.5-18
		L300.9,301.9z M278.1,283.9c-4.3,11.7-13.5,21.1-25.1,25.6c-11.9,4.6-17.4,0.7-20.2-1.3c-5.4-3.6-8-13.8-7.2-24.5
		c2.2-30.1,16.7-46.8,26.6-55.4c7.5-6.6,22.1-10.4,46.6-7.9C298.8,220.5,281,276.1,278.1,283.9L278.1,283.9z"/>
</g>
</svg>
