<?xml version="1.0" encoding="utf-8"?>
<!-- Generator: Adobe Illustrator 19.0.0, SVG Export Plug-In . SVG Version: 6.00 Build 0)  -->
<svg version="1.1" id="Layer_1" xmlns="http://www.w3.org/2000/svg" xmlns:xlink="http://www.w3.org/1999/xlink" x="0px" y="0px"
	 viewBox="0 0 100 100" style="enable-background:new 0 0 100 100;" xml:space="preserve">
<style type="text/css">
	.st0{fill:#DE4937;}
	.st1{fill:#FFFFFF;}
</style>
<circle id="XMLID_3_" class="st0" cx="50" cy="50" r="50"/>
<g id="XMLID_5_">
	<g id="XMLID_38_">
		<path id="XMLID_39_" class="st1" d="M35.7,45.7v9.5c0,0,9.2,0,13,0c-2,6.2-5.2,9.5-13,9.5c-7.9,0-14-6.4-14-14.3
			c0-7.9,6.1-14.3,14-14.3c4.2,0,6.9,1.5,9.3,3.5c2-2,1.8-2.3,6.8-7c-4.3-3.9-9.9-6.2-16.2-6.2c-13.3,0-24,10.7-24,24
			c0,13.3,10.7,24,24,24c19.8,0,24.7-17.3,23-28.8C54.1,45.7,35.7,45.7,35.7,45.7z M79,46.2v-8.3H73v8.3h-8.6v5.9H73v8.6H79v-8.6
			h8.3v-5.9H79z"/>
	</g>
</g>
</svg>
