<?xml version="1.0" encoding="utf-8"?>
<!-- Generator: Adobe Illustrator 19.0.0, SVG Export Plug-In . SVG Version: 6.00 Build 0)  -->
<svg version="1.1" id="Layer_1" xmlns="http://www.w3.org/2000/svg" xmlns:xlink="http://www.w3.org/1999/xlink" x="0px" y="0px"
	 viewBox="0 0 100 100" style="enable-background:new 0 0 100 100;" xml:space="preserve">
<style type="text/css">
	.st0{fill:url(#XMLID_6_);}
	.st1{fill:#FFFFFF;}
</style>
<linearGradient id="XMLID_6_" gradientUnits="userSpaceOnUse" x1="50" y1="97.8392" x2="50" y2="-1.7613">
	<stop  offset="0" style="stop-color:#4BEDF3"/>
	<stop  offset="1" style="stop-color:#3B66E5"/>
</linearGradient>
<circle id="XMLID_2_" class="st0" cx="50" cy="50" r="50"/>
<path id="XMLID_1_" class="st1" d="M74.3,32l-24,20.8L26.2,32H74.3z M50.1,61.2l0,6.9h0L50.1,61.2z M76.8,65.8V34.3 M76.8,34.3
	L59.4,49.1l17.4,16.7V34.3z M23.2,65.8l17.4-16.7L23.2,34.3V65.8z M56.9,51.1l-6.6,5.4l-7-5.4L25.7,67.8L50,68h0.1l24.3-0.2
	L56.9,51.1z M50.1,61.2l0,6.9h0L50.1,61.2z"/>
</svg>
