<?xml version="1.0" encoding="utf-8"?>
<!-- Generator: Adobe Illustrator 19.0.0, SVG Export Plug-In . SVG Version: 6.00 Build 0)  -->
<svg version="1.1" id="Layer_1" xmlns="http://www.w3.org/2000/svg" xmlns:xlink="http://www.w3.org/1999/xlink" x="0px" y="0px"
	 viewBox="0 0 100 100" style="enable-background:new 0 0 100 100;" xml:space="preserve">
<style type="text/css">
	.st0{fill:#FFFFFF;}
	.st1{fill:#C3002F;}
</style>
<path id="XMLID_2_" class="st0" d="M99.8,50.2c0,27.6-22.4,50-50,50s-50-22.4-50-50c0-27.6,22.4-50,50-50S99.8,22.6,99.8,50.2"/>
<path id="XMLID_1_" class="st1" d="M49.7,5.8C25.2,5.8,5.3,25.7,5.3,50.2c0,18.8,11.7,34.9,28.2,41.3c-0.4-3.5-0.7-8.9,0.2-12.7
	c0.8-3.5,5.2-22.1,5.2-22.1s-1.3-2.7-1.3-6.6c0-6.2,3.6-10.8,8-10.8c3.8,0,5.6,2.8,5.6,6.3c0,3.8-2.4,9.5-3.7,14.8
	c-1,4.4,2.2,8,6.6,8c7.9,0,14-8.3,14-20.3c0-10.6-7.6-18.1-18.5-18.1c-12.6,0-20,9.5-20,19.3c0,3.8,1.5,7.9,3.3,10.1
	c0.4,0.4,0.4,0.8,0.3,1.3c-0.3,1.4-1.1,4.4-1.2,5c-0.2,0.8-0.6,1-1.5,0.6c-5.5-2.6-9-10.7-9-17.2c0-14,10.2-26.9,29.3-26.9
	C66.1,22.3,78,33.3,78,48c0,15.3-9.6,27.6-23,27.6c-4.5,0-8.7-2.3-10.2-5.1c0,0-2.2,8.5-2.8,10.6c-1,3.9-3.7,8.7-5.5,11.6
	c4.2,1.3,8.6,2,13.1,2c24.5,0,44.4-19.9,44.4-44.4C94.1,25.7,74.2,5.8,49.7,5.8"/>
</svg>
